<svg xmlns="http://www.w3.org/2000/svg">
    <symbol id="favorites" viewBox="0 0 16 14">
        <path fill-rule="evenodd" clip-rule="evenodd"
              d="M2.334 2.156c-.565.513-.963 1.33-.963 2.568 0 .768.37 1.652 1.023 2.593.645.93 1.52 1.845 2.414 2.66a30.729 30.729 0 0 0 3.185 2.521 33.038 33.038 0 0 0 3.196-2.585c.896-.827 1.771-1.749 2.418-2.673.658-.938 1.022-1.798 1.022-2.516a3.365 3.365 0 0 0-3.36-3.37 3.348 3.348 0 0 0-2.712 1.39.688.688 0 0 1-1.114 0 3.348 3.348 0 0 0-2.713-1.39c-.99 0-1.82.28-2.396.802ZM8 13.323l-.376.567-.002-.002-.005-.003-.017-.011a31.217 31.217 0 0 1-1.152-.807 32.113 32.113 0 0 1-2.57-2.094c-.934-.851-1.889-1.844-2.615-2.89C.545 7.05 0 5.892 0 4.725c0-1.543.508-2.75 1.407-3.566C2.296.352 3.488 0 4.73 0A4.71 4.71 0 0 1 8 1.315a4.728 4.728 0 0 1 8 3.409c0 1.129-.55 2.267-1.265 3.287-.724 1.035-1.677 2.032-2.61 2.892a34.415 34.415 0 0 1-3.651 2.92l-.065.044-.017.012-.005.003h-.001c0 .001-.001.001-.386-.56Zm0 0 .386.56a.694.694 0 0 1-.762.007L8 13.323Z"
              fill="#2D3B87"/>
    </symbol>
    <symbol id="storage" fill="none" viewBox="0 0 18 20">
        <path d="M13 7.576 5 3" stroke="#2D3B87" stroke-width="1.1" stroke-linecap="round" stroke-linejoin="round"/>
        <path d="M17 13.443V6.332a1.778 1.778 0 0 0-.889-1.538L9.89 1.238a1.778 1.778 0 0 0-1.778 0L1.89 4.794A1.778 1.778 0 0 0 1 6.332v7.11a1.778 1.778 0 0 0 .889 1.538l6.222 3.556a1.778 1.778 0 0 0 1.778 0l6.222-3.556A1.778 1.778 0 0 0 17 13.443Z"
              stroke="#2D3B87" stroke-width="1.2" stroke-linecap="round" stroke-linejoin="round"/>
        <path d="M1.5 5.5 9 9.896 16.5 5.5M9 18V9.889" stroke="#2D3B87" stroke-width="1.2" stroke-linecap="round"
              stroke-linejoin="round"/>
    </symbol>
    <symbol id="deal" fill="none" viewBox="0 0 18 20">
        <path d="M4 1.667 1.5 5v11.667a1.667 1.667 0 0 0 1.667 1.666h11.667a1.667 1.667 0 0 0 1.666-1.666V5L14 1.667H4ZM1.5 5h15"
              stroke="#2D3B87" stroke-width="1.5" stroke-linecap="round" stroke-linejoin="round"/>
        <path d="M12.333 8.334a3.333 3.333 0 0 1-6.666 0" stroke="#2D3B87" stroke-width="1.5" stroke-linecap="round"
              stroke-linejoin="round"/>
    </symbol>
</svg>
