<svg width="18" height="20" viewBox="0 0 18 20" fill="none" xmlns="http://www.w3.org/2000/svg">
    <path d="M13 7.576 5 3" stroke="#2D3B87" stroke-width="1.1" stroke-linecap="round" stroke-linejoin="round"/>
    <path d="M17 13.443V6.332a1.778 1.778 0 0 0-.889-1.538L9.89 1.238a1.778 1.778 0 0 0-1.778 0L1.89 4.794A1.778 1.778 0 0 0 1 6.332v7.11a1.778 1.778 0 0 0 .889 1.538l6.222 3.556a1.778 1.778 0 0 0 1.778 0l6.222-3.556A1.778 1.778 0 0 0 17 13.443Z"
          stroke="#2D3B87" stroke-width="1.2" stroke-linecap="round" stroke-linejoin="round"/>
    <path d="M1.5 5.5 9 9.896 16.5 5.5M9 18V9.889" stroke="#2D3B87" stroke-width="1.2" stroke-linecap="round"
          stroke-linejoin="round"/>
</svg>
